# xmcd
#
# Track frame offsets:
#	150
#	28255
#	46198
#	57211
#	70716
#	81857
#	97455
#	109941
#	139807
#	150895
#	162341
#	176295
#	188313
#	200367
#
# Disc length: 2929 seconds
#
# Revision: 1
# Processed by: cddbd v1.5.2PL0 Copyright (c) Steve Scherf et al.
# Submitted via: audiograbber 1.83.01
#
DISCID=b20b6f0e
DTITLE=Yardbirds - The Yardbirds - The Jeff Beck Years
DYEAR=1900
DGENRE=
TTITLE0=I'm a man
TTITLE1=Mr you're a beter man than I
TTITLE2=Evil Hearted you
TTITLE3=Still I'm sad
TTITLE4=Heart full of soul
TTITLE5=Train Kept a rollin'
TTITLE6=Stroll on
TTITLE7=Someone to love
TTITLE8=Shape of things
TTITLE9=Questa volta
TTITLE10=Jeff's blues
TTITLE11=Paff...Bum
TTITLE12=Pounds and stomps
TTITLE13=New York city blues
EXTD=
EXTT0=
EXTT1=
EXTT2=
EXTT3=
EXTT4=
EXTT5=
EXTT6=
EXTT7=
EXTT8=
EXTT9=
EXTT10=
EXTT11=
EXTT12=
EXTT13=
PLAYORDER=
